<svg width="143" height="44" viewBox="0 0 143 44" fill="none" xmlns="http://www.w3.org/2000/svg">
<path d="M42.5137 43.3287C42.2422 43.3287 42.0007 43.3287 41.7573 43.3287C39.4448 43.3343 37.1323 43.3436 34.8199 43.3418C34.7394 43.3418 34.6177 43.2781 34.5839 43.2088C34.1533 42.3438 33.747 41.4656 33.3013 40.608C33.2002 40.4133 33.2246 40.1624 32.9999 40.0107C32.9025 39.9452 32.9006 39.7504 32.8388 39.6212C32.4138 38.7449 31.9813 37.8705 31.5581 36.9923C31.4401 36.7452 31.3615 36.4812 31.2454 36.234C31.0207 35.7584 30.7866 35.2884 30.547 34.8203C30.5208 34.7697 30.4402 34.7192 30.3822 34.7173C30.1088 34.7061 29.8336 34.7117 29.5527 34.7117C29.2962 37.5971 29.0434 40.4601 28.7887 43.3399H21.9487C22.0049 42.7033 22.0611 42.0797 22.1154 41.4562C22.2539 39.8815 22.3906 38.3049 22.5329 36.7302C22.6677 35.2322 22.8175 33.738 22.9505 32.2401C23.0722 30.8769 23.1752 29.5101 23.2969 28.1469C23.4373 26.5722 23.5909 24.9975 23.735 23.4209C23.8455 22.2132 23.9504 21.0073 24.0515 19.7996C24.0927 19.3165 24.0852 19.3165 24.5683 19.3165C28.5865 19.3165 32.6048 19.3034 36.6212 19.3277C37.3889 19.3315 38.1603 19.4551 38.9205 19.5749C39.2669 19.6292 39.6133 19.7771 39.926 19.9438C40.6207 20.3145 41.2854 20.7283 41.8415 21.3088C42.774 22.2806 43.435 23.4022 43.7458 24.7016C44.3094 27.059 43.8619 29.2404 42.465 31.2233C42.2441 31.536 41.9894 31.8244 41.7404 32.1146C41.6599 32.2083 41.5438 32.27 41.4427 32.3449C41.336 32.4236 41.2199 32.491 41.1244 32.579C40.9484 32.7438 40.8042 32.9254 40.542 32.9965C40.3604 33.0471 40.2256 33.2512 40.0458 33.3336C39.4954 33.5864 38.9374 33.8204 38.3756 34.0507C38.2015 34.1219 38.1678 34.1968 38.2558 34.3672C38.546 34.9252 38.8288 35.4869 39.0984 36.0561C39.2744 36.4269 39.4055 36.8163 39.5834 37.1852C39.9335 37.9154 40.3024 38.6382 40.6619 39.3647C40.9165 39.8778 41.1731 40.3908 41.4183 40.9095C41.7816 41.6753 42.1355 42.4467 42.4931 43.2163C42.5062 43.2425 42.5044 43.2744 42.5156 43.3305L42.5137 43.3287ZM33.0017 24.52C33.0017 24.5294 33.0017 24.5406 33.0017 24.55C32.2921 24.55 31.5824 24.5537 30.8709 24.55C30.5264 24.5481 30.517 24.5387 30.4814 24.8889C30.3822 25.8663 30.2923 26.8456 30.2006 27.8249C30.15 28.3566 30.1051 28.8884 30.0545 29.4202C30.0395 29.5868 30.0901 29.6636 30.2736 29.6636C31.6536 29.6599 33.0336 29.6692 34.4154 29.6636C35.0352 29.6617 35.5651 29.4389 36.0538 29.0401C37.0256 28.248 37.563 26.7576 36.6642 25.46C36.2504 24.8627 35.698 24.5275 34.9641 24.5219C34.3087 24.5163 33.6552 24.5219 32.9999 24.5219L33.0017 24.52Z" fill="white"/>
<path d="M101.467 32.3467C101.424 32.9458 101.396 33.4776 101.348 34.0056C101.245 35.1329 101.125 36.2601 101.022 37.3891C100.934 38.3534 100.861 39.3178 100.778 40.2821C100.696 41.2389 100.604 42.1938 100.524 43.1506C100.509 43.3266 100.406 43.3491 100.267 43.3472C99.7616 43.3398 99.2579 43.3323 98.7524 43.3323C97.1496 43.3323 95.5467 43.3323 93.9458 43.3323C93.6537 43.3323 93.6406 43.3117 93.6668 43.0196C93.8297 41.2333 93.987 39.4451 94.1499 37.6588C94.2866 36.1702 94.4326 34.6816 94.5656 33.1911C94.6817 31.8898 94.7847 30.5884 94.9008 29.2871C95.0449 27.6562 95.2022 26.0272 95.3464 24.3963C95.4924 22.7429 95.6273 21.0877 95.7658 19.4325C95.7677 19.4025 95.7771 19.3725 95.7845 19.3295H102.636C102.321 22.7729 102.01 26.2032 101.698 29.6335C101.716 29.6429 101.735 29.6522 101.754 29.6597C101.814 29.5848 101.877 29.5118 101.932 29.4332C102.988 27.8846 104.042 26.3361 105.098 24.7876C106.135 23.2653 107.175 21.7449 108.216 20.2245C108.394 19.9642 108.575 19.7058 108.774 19.4624C108.834 19.3875 108.955 19.3201 109.049 19.3201C111.56 19.3126 114.069 19.3164 116.58 19.3164C116.595 19.3164 116.61 19.3257 116.642 19.3351C116.454 19.5972 116.263 19.8519 116.086 20.114C115.469 21.0184 114.861 21.9284 114.241 22.8309C112.914 24.7652 111.579 26.6956 110.249 28.628C109.732 29.3807 109.217 30.1353 108.712 30.8955C108.661 30.9723 108.646 31.1052 108.671 31.197C108.731 31.431 108.781 31.6838 108.912 31.8767C109.193 32.2924 109.319 32.7773 109.568 33.2061C109.818 33.6405 110.023 34.103 110.249 34.5543C110.393 34.8426 110.549 35.1254 110.68 35.4212C110.798 35.6852 110.86 35.9755 110.994 36.2264C111.537 37.2356 111.998 38.2842 112.528 39.3009C112.674 39.5818 112.754 39.8945 112.886 40.1828C112.966 40.3588 113.097 40.5124 113.189 40.6846C113.264 40.8251 113.309 40.9805 113.378 41.1228C113.709 41.81 114.043 42.4953 114.376 43.1825C114.395 43.2218 114.404 43.2667 114.428 43.3398C114.295 43.3398 114.189 43.3398 114.082 43.3398C111.659 43.3379 109.236 43.3323 106.811 43.336C106.63 43.336 106.57 43.2798 106.499 43.1113C106.291 42.6207 106.036 42.1489 105.808 41.6658C105.418 40.8438 105.006 40.0293 104.66 39.1904C104.37 38.4864 103.967 37.8348 103.697 37.1251C103.366 36.2488 102.851 35.4605 102.523 34.5861C102.271 33.912 101.932 33.281 101.636 32.6294C101.598 32.5489 101.546 32.474 101.471 32.3448L101.467 32.3467Z" fill="white"/>
<path d="M68.7203 43.34C66.4471 43.34 64.2227 43.34 61.9963 43.34C61.6705 43.34 61.6088 43.3082 61.5507 42.9899C61.3466 41.8608 61.1444 40.7317 60.9515 39.6008C60.8654 39.0952 60.8766 39.0971 60.3804 39.099C58.1784 39.1008 55.9765 39.1008 53.7745 39.099C53.664 39.099 53.5554 39.0877 53.4224 39.0802C52.9038 40.4958 52.3814 41.9207 51.8665 43.3269H44.6201C44.7418 42.9918 44.8448 42.6809 44.9646 42.3776C45.3597 41.3871 45.7604 40.4003 46.1593 39.4098C46.4251 38.7488 46.6929 38.0878 46.9513 37.425C47.3951 36.2941 47.8295 35.1612 48.2732 34.0321C48.5129 33.4199 48.7638 32.8132 49.0054 32.2009C49.4641 31.0344 49.9172 29.866 50.3741 28.6994C50.5876 28.1527 50.801 27.6078 51.0201 27.0629C51.3122 26.3364 51.6155 25.6155 51.9039 24.889C52.211 24.1082 52.4993 23.3218 52.8064 22.541C53.0667 21.8781 53.3382 21.2209 53.606 20.5618C53.7202 20.2791 53.8363 19.9982 53.943 19.7136C53.9861 19.5994 54.0029 19.4739 54.0422 19.311C54.0909 19.311 54.1639 19.311 54.2388 19.311C57.231 19.311 60.2213 19.311 63.2134 19.311C63.5561 19.311 63.616 19.3784 63.6778 19.708C63.7695 20.1948 63.88 20.676 63.9849 21.161C64.1534 21.9362 64.3257 22.7095 64.4923 23.4847C64.7151 24.5127 64.9398 25.5406 65.157 26.5705C65.3817 27.6303 65.5989 28.692 65.8255 29.7536C65.9715 30.4371 66.1307 31.1186 66.2786 31.8002C66.4434 32.5604 66.6044 33.3206 66.7673 34.0808C66.9864 35.1013 67.2092 36.1218 67.4283 37.1441C67.5875 37.8819 67.7429 38.6196 67.902 39.3555C68.123 40.3835 68.3477 41.4133 68.5649 42.4413C68.6267 42.7315 68.666 43.0255 68.7165 43.3344L68.7203 43.34ZM55.22 33.9554C55.2799 33.9629 55.3248 33.9741 55.3717 33.9741C55.9559 33.9741 56.5401 33.9685 57.1243 33.9685C57.9762 33.9685 58.8282 33.9685 59.682 33.9685C59.8019 33.9685 59.9217 33.9872 59.8805 33.7831C59.7363 33.0753 59.6034 32.3638 59.4742 31.6523C59.1128 29.6563 58.757 27.6602 58.3975 25.6661C58.3825 25.5837 58.347 25.5032 58.3207 25.4227C58.2983 25.4227 58.2758 25.4264 58.2533 25.4264C57.2441 28.2669 56.233 31.1074 55.22 33.9591V33.9554Z" fill="white"/>
<path d="M90.9145 27.7107C90.2329 27.3325 89.6206 26.958 88.9784 26.6453C88.2575 26.2952 87.5273 25.945 86.7689 25.6979C85.6024 25.3178 84.4021 25.1736 83.1588 25.329C82.4155 25.4208 81.7264 25.6454 81.0598 25.9375C80.6498 26.1154 80.279 26.4 79.9214 26.6734C79.0638 27.3325 78.5152 28.22 78.0771 29.1956C77.6089 30.2385 77.4423 31.3339 77.4872 32.4555C77.506 32.9311 77.6763 33.4048 77.7943 33.8729C77.8505 34.0995 77.9441 34.3167 78.0246 34.5358C78.24 35.1144 78.5938 35.6237 79.032 36.03C79.4945 36.4606 79.9869 36.8763 80.6254 37.0898C82.0878 37.5785 83.5502 37.5504 85.0313 37.2246C85.7709 37.0617 86.4899 36.852 87.1752 36.5224C88.1882 36.0356 89.2068 35.5638 90.2254 35.0863C90.2367 35.0807 90.2554 35.0863 90.2779 35.0882C90.2217 35.7135 90.1618 36.3371 90.1075 36.9625C90.0007 38.2095 89.9015 39.4566 89.7854 40.7017C89.7573 41.0125 89.8116 41.3608 89.5102 41.593C89.4783 41.6173 89.454 41.651 89.4203 41.6698C88.8754 41.9769 88.3511 42.3307 87.78 42.576C86.9449 42.9337 86.0836 43.2333 85.183 43.4074C83.6625 43.7014 82.1402 43.7838 80.5992 43.5628C79.7379 43.4411 78.8916 43.2745 78.0733 42.9861C77.0584 42.6266 76.1185 42.121 75.2272 41.5162C74.5082 41.0275 73.8996 40.4246 73.3417 39.7711C73.0645 39.4472 72.8754 39.0502 72.6077 38.7188C72.2819 38.3181 72.0459 37.8687 71.8456 37.4062C71.3644 36.2921 70.9861 35.1425 70.9037 33.9235C70.8494 33.109 70.797 32.2851 70.8625 31.4743C70.9318 30.6168 71.1153 29.7648 71.2988 28.9203C71.3981 28.4653 71.5816 28.0253 71.7576 27.5928C72.1826 26.5573 72.7181 25.5799 73.3641 24.6624C73.9259 23.8648 74.613 23.1832 75.3208 22.5185C75.5212 22.3294 75.7122 22.129 75.9181 21.9455C76.0024 21.8706 76.1147 21.8294 76.2158 21.7751C76.2627 21.7489 76.3151 21.732 76.3582 21.7021C76.7083 21.4662 77.051 21.2209 77.4067 20.9943C77.7831 20.7565 78.1519 20.4887 78.5601 20.3202C79.4421 19.9532 80.3371 19.6237 81.2752 19.3934C82.3612 19.1256 83.4603 19.0058 84.5707 19.0002C85.7653 18.9945 86.9468 19.1368 88.0871 19.5188C88.4204 19.6293 88.7462 19.7622 89.0758 19.884C89.864 20.1779 90.5681 20.6217 91.2553 21.0992C91.4069 21.2059 91.4612 21.2976 91.4406 21.4961C91.3508 22.3574 91.2927 23.2206 91.2197 24.082C91.1336 25.1081 91.0437 26.136 90.9557 27.1621C90.9407 27.3381 90.9276 27.5141 90.9126 27.7107H90.9145Z" fill="white"/>
<path d="M117.818 19.3147H118.106C120.585 19.3147 123.062 19.3147 125.542 19.3147C125.706 19.3147 125.819 19.3147 125.92 19.5188C126.266 20.2247 126.661 20.9044 127.041 21.5935C127.362 22.1758 127.663 22.7712 128.017 23.3311C128.425 23.9752 128.762 24.653 129.11 25.329C129.305 25.7072 129.564 26.0536 129.775 26.3888C130.96 24.6923 132.146 23.0034 133.32 21.3051C133.748 20.6835 134.142 20.0393 134.563 19.4139C134.604 19.3521 134.733 19.3203 134.821 19.3203C136.574 19.3147 138.327 19.3166 140.077 19.3166C140.961 19.3166 141.845 19.3166 142.729 19.3166C142.804 19.3166 142.88 19.3241 143 19.3297C142.923 19.4364 142.877 19.5132 142.82 19.5843C141.8 20.8557 140.776 22.1252 139.757 23.3985C138.828 24.5613 137.907 25.7278 136.98 26.8925C136.357 27.6733 135.729 28.4522 135.104 29.2311C134.391 30.1224 133.675 31.0118 132.969 31.9087C132.896 32.0005 132.853 32.1353 132.842 32.2532C132.726 33.476 132.623 34.6987 132.513 35.9195C132.393 37.2508 132.267 38.5821 132.149 39.9153C132.056 40.9732 131.964 42.0311 131.883 43.0891C131.867 43.3081 131.754 43.3512 131.576 43.3493C131.213 43.3418 130.85 43.3287 130.489 43.3287C128.721 43.3325 126.953 43.34 125.186 43.3456C125.116 43.3456 125.047 43.3381 124.967 43.3343C125.023 42.6678 125.077 42.0199 125.133 41.372C125.225 40.3216 125.313 39.2711 125.41 38.2207C125.547 36.7321 125.689 35.2435 125.826 33.7549C125.865 33.3243 125.894 32.8918 125.938 32.4611C125.98 32.0697 125.774 31.7683 125.586 31.4612C125.317 31.0193 125.036 30.5849 124.755 30.1505C124.676 30.0288 124.57 29.9221 124.493 29.7985C124.315 29.5101 124.154 29.2143 123.974 28.9259C123.824 28.6825 123.654 28.4522 123.502 28.2088C123.332 27.9335 123.182 27.6452 123.006 27.3755C122.731 26.9542 122.431 26.5498 122.158 26.1266C121.986 25.8607 121.858 25.5668 121.684 25.3028C121.512 25.0406 121.287 24.8103 121.117 24.5463C120.86 24.1512 120.636 23.7355 120.39 23.333C120.314 23.2094 120.203 23.1064 120.126 22.9828C119.949 22.6945 119.793 22.393 119.612 22.1084C119.357 21.7114 119.08 21.3313 118.825 20.9344C118.638 20.6441 118.477 20.3352 118.29 20.0431C118.19 19.8858 118.056 19.751 117.949 19.5974C117.896 19.5244 117.87 19.4327 117.814 19.3091L117.818 19.3147Z" fill="white"/>
<path d="M21.1024 19.3149C21.0069 20.2829 20.9114 21.2135 20.8253 22.146C20.7635 22.7957 20.7148 23.4473 20.6586 24.0971C20.6324 24.3948 20.5744 24.4453 20.2748 24.4453C18.2001 24.4453 16.1236 24.4491 14.0489 24.4435C13.8298 24.4435 13.7606 24.4959 13.7456 24.7281C13.68 25.6531 13.5827 26.5781 13.5003 27.503C13.4141 28.4898 13.3336 29.4785 13.2456 30.4652C13.0921 32.1897 12.9348 33.9124 12.7813 35.6369C12.6483 37.1255 12.521 38.6141 12.3918 40.1045C12.3057 41.1007 12.2177 42.0949 12.1446 43.0911C12.1278 43.327 11.9967 43.3551 11.8132 43.3514C11.2215 43.3439 10.6298 43.3345 10.0381 43.3345C8.50649 43.3345 6.97671 43.3401 5.44505 43.342C5.37015 43.342 5.29526 43.3251 5.20538 43.3158C5.27091 42.6117 5.33645 41.932 5.39824 41.2505C5.51995 39.8799 5.64166 38.5074 5.76149 37.1349C5.93937 35.0883 6.11538 33.0417 6.29514 30.997C6.43557 29.3979 6.58724 27.8008 6.72767 26.2017C6.77261 25.6999 6.79508 25.1962 6.83814 24.6944C6.85312 24.5165 6.79133 24.4603 6.61345 24.4622C4.46764 24.4622 2.31995 24.4584 0.174137 24.4566C0.119836 24.4566 0.0655353 24.4566 0 24.4566C0.0786424 23.6121 0.15354 22.7864 0.23031 21.9587C0.303335 21.1667 0.385722 20.3765 0.443768 19.5845C0.46062 19.3673 0.531773 19.313 0.741486 19.313C3.567 19.3186 6.3925 19.3167 9.21801 19.3167C13.0771 19.3167 16.9381 19.3167 20.7972 19.3167C20.8908 19.3167 20.9844 19.3167 21.1005 19.3167L21.1024 19.3149Z" fill="white"/>
<path d="M1.2 17V13.34H0.066V12.53H3.246V13.34H2.13V17H1.2ZM3.70655 17V12.53H5.41655C5.72455 12.53 5.99655 12.584 6.23255 12.692C6.47255 12.8 6.66055 12.96 6.79655 13.172C6.93255 13.384 7.00055 13.646 7.00055 13.958C7.00055 14.262 6.93055 14.522 6.79055 14.738C6.65055 14.95 6.46255 15.11 6.22655 15.218L7.24655 17H6.20255L5.09855 15.026L5.69855 15.38H4.63655V17H3.70655ZM4.63655 14.57H5.42255C5.55455 14.57 5.66855 14.544 5.76455 14.492C5.86055 14.44 5.93455 14.368 5.98655 14.276C6.04255 14.184 6.07055 14.078 6.07055 13.958C6.07055 13.834 6.04255 13.726 5.98655 13.634C5.93455 13.542 5.86055 13.47 5.76455 13.418C5.66855 13.366 5.55455 13.34 5.42255 13.34H4.63655V14.57ZM8.80791 17V15.05L7.31991 12.53H8.38191L9.46191 14.426H9.08391L10.1579 12.53H11.2199L9.73791 15.044V17H8.80791Z" fill="#2EDE9F"/>
</svg>
